<svg width="90" height="90" viewBox="0 0 90 90" fill="none" xmlns="http://www.w3.org/2000/svg">
<path d="M45 0C20.1873 0 0 20.1873 0 45C0 69.8127 20.1873 90 45 90C69.8127 90 90 69.8127 90 45C90 20.1873 69.8127 0 45 0ZM68.4195 29.9185L39.3426 64.5339C39.0236 64.9138 38.6267 65.2207 38.1788 65.4339C37.7309 65.647 37.2424 65.7614 36.7464 65.7692H36.688C36.2028 65.7691 35.7231 65.6669 35.2799 65.4694C34.8368 65.2718 34.4401 64.9833 34.1156 64.6226L21.6541 50.7764C21.3376 50.4408 21.0914 50.0452 20.93 49.6131C20.7686 49.1809 20.6952 48.7208 20.7141 48.2599C20.733 47.7989 20.8439 47.3464 21.0402 46.9289C21.2365 46.5114 21.5143 46.1374 21.8572 45.8288C22.2001 45.5202 22.6013 45.2832 23.0371 45.1319C23.4729 44.9805 23.9345 44.9178 24.3949 44.9474C24.8553 44.977 25.3051 45.0984 25.7179 45.3043C26.1307 45.5103 26.4982 45.7966 26.7988 46.1466L36.5971 57.0332L63.119 25.4661C63.7139 24.7783 64.5556 24.3522 65.4621 24.28C66.3686 24.2078 67.2672 24.4952 67.9635 25.0801C68.6598 25.665 69.098 26.5004 69.1833 27.4058C69.2687 28.3112 68.9943 29.2138 68.4195 29.9185Z" fill="url(#paint0_linear_1999_16)"/>
<defs>
<linearGradient id="paint0_linear_1999_16" x1="3.00438e-07" y1="21.9372" x2="90" y2="68.0628" gradientUnits="userSpaceOnUse">
<stop stop-color="#01ABF6"/>
<stop offset="1" stop-color="#0A2F9A"/>
</linearGradient>
</defs>
</svg>
