<svg width="50" height="60" viewBox="0 0 50 60" fill="none" xmlns="http://www.w3.org/2000/svg">
<path d="M40.887 39.7919C38.5105 39.7911 36.2284 40.8228 34.53 42.6658L17.9744 32.3452C18.3146 30.7887 18.3146 29.1645 17.9744 27.6079L34.5248 17.2873C36.071 18.9549 38.102 19.9578 40.2543 20.1166C42.4065 20.2753 44.5395 19.5796 46.2712 18.1538C48.003 16.7281 49.2206 14.6654 49.706 12.3352C50.1913 10.0049 49.9128 7.55922 48.9202 5.43588C47.9277 3.31255 46.2859 1.65023 44.2888 0.74654C42.2917 -0.157156 40.0697 -0.243227 38.0206 0.503735C35.9716 1.2507 34.2291 2.78192 33.1053 4.82328C31.9816 6.86463 31.5498 9.28283 31.8873 11.645L14.9463 22.2109C13.6156 20.9817 11.9965 20.1983 10.2788 19.9527C8.56101 19.707 6.81568 20.0092 5.24724 20.8238C3.6788 21.6384 2.35222 22.9317 1.4229 24.5522C0.493573 26.1727 0 28.0533 0 29.9737C0 31.894 0.493573 33.7746 1.4229 35.3951C2.35222 37.0156 3.6788 38.309 5.24724 39.1236C6.81568 39.9382 8.56101 40.2404 10.2788 39.9947C11.9965 39.749 13.6156 38.9657 14.9463 37.7365L31.8873 48.3082C31.5944 50.3488 31.8729 52.44 32.6852 54.2997C33.4974 56.1595 34.8044 57.6984 36.43 58.709C38.0555 59.7197 39.9214 60.1534 41.7762 59.9518C43.631 59.7502 45.3854 58.9229 46.803 57.5815C48.2205 56.24 49.2331 54.449 49.7041 52.4497C50.1752 50.4505 50.082 48.3392 49.4373 46.4004C48.7926 44.4617 47.6272 42.7887 46.0984 41.6071C44.5695 40.4254 42.7506 39.7919 40.887 39.7919Z" fill="url(#paint0_linear_2177_75)"/>
<defs>
<linearGradient id="paint0_linear_2177_75" x1="0.0087727" y1="-0.0468609" x2="56.1312" y2="60.1275" gradientUnits="userSpaceOnUse">
<stop stop-color="#20B6F7"/>
<stop offset="1" stop-color="#09369F"/>
</linearGradient>
</defs>
</svg>
