<svg width="90" height="90" viewBox="0 0 90 90" fill="none" xmlns="http://www.w3.org/2000/svg">
<rect width="90" height="90" rx="8" fill="url(#paint0_linear_978_658)"/>
<path d="M35.7159 14H16.7841C15.2465 14 14 15.2465 14 16.7841V35.7159C14 37.2535 15.2465 38.5 16.7841 38.5H35.7159C37.2535 38.5 38.5 37.2535 38.5 35.7159V16.7841C38.5 15.2465 37.2535 14 35.7159 14Z" stroke="#F7F7F7" stroke-width="4" stroke-linecap="round" stroke-linejoin="round"/>
<path d="M73.2159 14H54.2841C52.7465 14 51.5 15.2465 51.5 16.7841V35.7159C51.5 37.2535 52.7465 38.5 54.2841 38.5H73.2159C74.7535 38.5 76 37.2535 76 35.7159V16.7841C76 15.2465 74.7535 14 73.2159 14Z" stroke="#F7F7F7" stroke-width="4" stroke-linecap="round" stroke-linejoin="round"/>
<path d="M35.7159 51.5H16.7841C15.2465 51.5 14 52.7465 14 54.2841V73.2159C14 74.7535 15.2465 76 16.7841 76H35.7159C37.2535 76 38.5 74.7535 38.5 73.2159V54.2841C38.5 52.7465 37.2535 51.5 35.7159 51.5Z" stroke="#F7F7F7" stroke-width="4" stroke-linecap="round" stroke-linejoin="round"/>
<path d="M73.2159 51.5H54.2841C52.7465 51.5 51.5 52.7465 51.5 54.2841V73.2159C51.5 74.7535 52.7465 76 54.2841 76H73.2159C74.7535 76 76 74.7535 76 73.2159V54.2841C76 52.7465 74.7535 51.5 73.2159 51.5Z" stroke="#F7F7F7" stroke-width="4" stroke-linecap="round" stroke-linejoin="round"/>
<defs>
<linearGradient id="paint0_linear_978_658" x1="87" y1="84" x2="0" y2="0" gradientUnits="userSpaceOnUse">
<stop stop-color="#31356E"/>
<stop offset="1" stop-color="#5E66D4"/>
</linearGradient>
</defs>
</svg>
